PathFileType	4	(X/Y/Z)	./resultDataOpenSim/trcMotMarkerGrf/sub06/qtm-12-04.trc
DataRate	CameraRate	NumFrames	NumMarkers	Units	OrigDataRate	OrigDataStartFrame	OrigNumFrames
250.000000	250.000000	13	24	m	250.000000	403	537
Frame#	Time	L.Toe.Tip			R.Toe.Tip			L.Ankle.Lat			R.Ankle.Lat			L.Ankle.Med			R.Ankle.Med			L.Heel			R.Heel			L.Knee.Lat			R.Knee.Lat			L.Knee.Med			R.Knee.Med			L.Thigh.Upper			R.Thigh.Upper			L.ASIS			R.ASIS			V.Sacral			L.Acromium			R.Acromium			C7			L.Elbow			R.Elbow			L.Wrist.Lat			R.Wrist.Lat
		X1	Y1	Z1	X2	Y2	Z2	X3	Y3	Z3	X4	Y4	Z4	X5	Y5	Z5	X6	Y6	Z6	X7	Y7	Z7	X8	Y8	Z8	X9	Y9	Z9	X10	Y10	Z10	X11	Y11	Z11	X12	Y12	Z12	X13	Y13	Z13	X14	Y14	Z14	X15	Y15	Z15	X16	Y16	Z16	X17	Y17	Z17	X18	Y18	Z18	X19	Y19	Z19	X20	Y20	Z20	X21	Y21	Z21	X22	Y22	Z22	X23	Y23	Z23	X24	Y24	Z24

403	1.608	1.6033609	0.12453062	-0.048491228	0.84293131	0.03469288	0.08502351	1.478131	0.094479341	-0.069407362	0.73353666	0.10838407	0.12286023	1.4724236	0.11141806	0.012659771	0.75902737	0.12600554	0.036776885	1.4289597	0.03312608	-0.023661361	0.67504539	0.11729683	0.066937125	1.352874	0.44567849	-0.080334014	0.97382174	0.42431721	0.14953403	1.3216874	0.43478221	0.040936349	0.95028948	0.42761867	0.019870695	1.1637956	0.78039448	-0.1415209	1.0797051	0.77120555	0.1976688	1.2225466	0.82584068	-0.082414322	1.1921435	0.82003991	0.16470399	1.0216604	0.89782664	0.021471009	1.1086652	1.297469	-0.16170424	1.1280068	1.3024852	0.20174053	1.0388275	1.3342955	0.022563687	0.99064346	1.0137739	-0.1935156	1.1622161	0.98510641	0.30154682	1.0199391	0.7832193	-0.26658097	1.4018403	0.9734209	0.23077312
404	1.612	1.6059778	0.1200188	-0.046748672	0.84338624	0.034666568	0.085221846	1.480707	0.091307729	-0.06841413	0.73546341	0.11041075	0.12359926	1.4747931	0.10829389	0.013573225	0.76149665	0.12783718	0.037596183	1.4304268	0.030548935	-0.023147247	0.67757271	0.12061954	0.067748849	1.3602703	0.44542224	-0.079870686	0.97989409	0.42370897	0.14986102	1.3288556	0.43451498	0.041097812	0.9566801	0.42690699	0.020177069	1.1715357	0.78005087	-0.14177845	1.0864783	0.77025754	0.19736264	1.2301826	0.8250245	-0.082541174	1.1991837	0.81909385	0.16451497	1.0273031	0.8972634	0.021154737	1.1153583	1.2964714	-0.16243399	1.1344378	1.3017564	0.20097391	1.0452931	1.3332881	0.021710989	0.99693935	1.0130599	-0.19383754	1.1682111	0.98445988	0.30103518	1.025389	0.78232859	-0.26683724	1.4076848	0.97153991	0.23017983
405	1.616	1.6081089	0.11531383	-0.045035451	0.8439104	0.034673694	0.085465978	1.4828955	0.087967676	-0.067477341	0.73795553	0.11262063	0.12433439	1.4767697	0.10501114	0.014458199	0.76416174	0.12970832	0.038437037	1.431304	0.02799537	-0.022751667	0.68031082	0.12404199	0.068523194	1.3675603	0.44512908	-0.079427143	0.98610685	0.42309199	0.15022139	1.3360092	0.43421595	0.041257697	0.96325348	0.42615156	0.020532428	1.1793678	0.77973189	-0.1420108	1.0933444	0.76929374	0.19703284	1.2379066	0.8242743	-0.08268747	1.2063104	0.81819418	0.16432847	1.0349649	0.89640003	0.021032511	1.122082	1.2955065	-0.16318213	1.1408967	1.3010479	0.20017261	1.0517134	1.3323463	0.020780785	1.0032723	1.0123465	-0.19417932	1.1740892	0.9837969	0.30047686	1.03101	0.78144998	-0.26708522	1.4134707	0.96958807	0.22962644
406	1.62	1.6099344	0.11032362	-0.043348718	0.84447136	0.034698089	0.085731171	1.484737	0.084483655	-0.066612889	0.74087172	0.11495578	0.12507194	1.4784014	0.10158871	0.015367021	0.76704016	0.13160485	0.039297612	1.4316588	0.025692673	-0.022415554	0.68327296	0.12756472	0.069259009	1.374687	0.44477891	-0.078983001	0.992483	0.42244949	0.15062517	1.3431416	0.43385171	0.04142805	0.97001517	0.42534351	0.020945056	1.1872905	0.77942201	-0.14220278	1.1005117	0.76826148	0.19672004	1.2457205	0.823586	-0.082852545	1.2135172	0.81734828	0.16416376	1.0455826	0.89500863	0.020589157	1.1288371	1.2945684	-0.16394626	1.1473724	1.3003583	0.19934095	1.0580989	1.33144	0.0197863	1.0096504	1.0116366	-0.19454904	1.1798801	0.98313352	0.29989434	1.0367951	0.7805837	-0.26732673	1.4192004	0.96756832	0.22911056
407	1.624	1.6118314	0.10479842	-0.041715571	0.84502156	0.034701294	0.085966243	1.4863712	0.081012348	-0.065871473	0.74389402	0.11730443	0.12581415	1.4799071	0.098182228	0.016358793	0.77014765	0.13351321	0.04017383	1.4317883	0.024013342	-0.021982444	0.68647706	0.13118787	0.069951575	1.3816033	0.44433609	-0.078509115	0.99907873	0.42175371	0.15108911	1.350251	0.43338767	0.041627957	0.97698716	0.42447067	0.02142688	1.1953098	0.77910141	-0.14233871	1.1083574	0.76709911	0.19652456	1.2536071	0.82296169	-0.083022185	1.2207904	0.81655577	0.16402085	1.0569355	0.89346905	0.019823148	1.1356175	1.2936531	-0.16472456	1.1538601	1.2996788	0.19847675	1.0645006	1.3305025	0.018777663	1.0160756	1.0109336	-0.19494628	1.1856556	0.98251258	0.29934362	1.0427396	0.77972808	-0.26755846	1.4248669	0.96547922	0.22863187
408	1.628	1.614375	0.098505879	-0.040286951	0.84553342	0.03465726	0.086126925	1.4881067	0.07789742	-0.065264956	0.74689138	0.11962379	0.12657433	1.4818021	0.095112852	0.017440834	0.77349732	0.13542256	0.04106803	1.4321956	0.023372822	-0.021292191	0.68994237	0.13491232	0.07060069	1.3882903	0.44373738	-0.077983879	1.0059379	0.42098477	0.15162335	1.3573464	0.43278246	0.041878292	0.98418811	0.42351292	0.021986193	1.2034359	0.77874285	-0.14241329	1.117121	0.76578883	0.19653597	1.2615355	0.82241356	-0.083167476	1.2281133	0.81580639	0.16389209	1.0660786	0.89235789	0.01916222	1.1424204	1.2927597	-0.16551779	1.1603551	1.2990031	0.19758044	1.0709491	1.3295208	0.017785941	1.0225439	1.0102361	-0.19536686	1.1914724	0.9819669	0.29887422	1.0488402	0.77888193	-0.26777817	1.4304652	0.96332046	0.22819283
409	1.632	1.6180825	0.091586312	-0.039346132	0.84602061	0.034572531	0.086234414	1.4904414	0.075564012	-0.064718858	0.74992403	0.12194613	0.12736159	1.4847851	0.092715994	0.018522284	0.77710587	0.13732532	0.041994552	1.4333532	0.023981498	-0.020353194	0.69370052	0.13872759	0.071221831	1.394771	0.44291407	-0.077398614	1.0130673	0.42013604	0.15221723	1.364439	0.43199188	0.042186792	0.99161976	0.42245353	0.022622257	1.2116781	0.77832231	-0.1424389	1.1263907	0.76441949	0.19667325	1.2694739	0.82195328	-0.083263037	1.2354743	0.81508882	0.16376495	1.072841	0.89175494	0.018782069	1.1492505	1.2918923	-0.16633198	1.1668512	1.2983382	0.19665867	1.0774199	1.328557	0.016791446	1.0290515	1.0095463	-0.19580863	1.1973098	0.98147955	0.29847529	1.0550915	0.77804458	-0.26799266	1.435995	0.96109559	0.22779687
410	1.636	1.6230186	0.084705343	-0.039066744	0.84652358	0.034475953	0.086361927	1.4938875	0.07421954	-0.064116161	0.75310576	0.12431138	0.1281784	1.4892805	0.091090297	0.019457553	0.7809987	0.13921695	0.042974981	1.435429	0.025623235	-0.019398599	0.69780457	0.14261409	0.07184846	1.4011139	0.44184415	-0.076749639	1.0204593	0.41920436	0.15284859	1.3714993	0.43098289	0.042533968	0.99927013	0.42129184	0.023321473	1.2200343	0.77784818	-0.14245018	1.1352022	0.76314976	0.19668668	1.2773973	0.8215836	-0.083305514	1.2428801	0.8143977	0.1636166	1.078926	0.89137158	0.018558336	1.1561149	1.2910578	-0.16717495	1.1733449	1.2977071	0.19572218	1.0838862	1.3276843	0.015756439	1.0355971	1.008867	-0.19627508	1.2030908	0.98099642	0.2980802	1.0614885	0.77721548	-0.26821233	1.4414563	0.95881159	0.22744736
411	1.64	1.6286505	0.078667575	-0.03921192	0.84707736	0.03439579	0.086549356	1.4985887	0.073638334	-0.063403121	0.75654778	0.1267231	0.12904146	1.4949874	0.090008276	0.020154732	0.78521383	0.14108914	0.044029131	1.4382054	0.027744133	-0.0187283	0.70231926	0.14656479	0.072516789	1.4074382	0.44058463	-0.076038763	1.0281166	0.4181869	0.15350822	1.3784405	0.42974936	0.042881957	1.007126	0.42003631	0.024061796	1.228479	0.77738505	-0.14249826	1.1429355	0.7620613	0.19639613	1.2852803	0.82130461	-0.083317561	1.2503501	0.81373419	0.16341254	1.085318	0.89102954	0.018392103	1.1630169	1.2902622	-0.16805079	1.179835	1.2971399	0.19478589	1.0903742	1.3269377	0.014665507	1.0421837	1.008195	-0.19677351	1.2087718	0.98049515	0.29763383	1.0680292	0.77639552	-0.26843711	1.4468513	0.95647636	0.22714633
412	1.644	1.6341313	0.07378729	-0.039222817	0.84769015	0.034345302	0.086766478	1.5040687	0.073305703	-0.062648224	0.76034024	0.12915207	0.12997388	1.5009685	0.089098533	0.020632599	0.78979891	0.14292096	0.045167787	1.4412144	0.02979893	-0.018505785	0.70730006	0.15058896	0.073245445	1.4139163	0.43925863	-0.075279914	1.036054	0.41708326	0.15421034	1.3851736	0.42833078	0.043198948	1.0151919	0.4186799	0.024831608	1.2369687	0.77705005	-0.14262005	1.1497671	0.76109939	0.19583371	1.2930982	0.82112152	-0.083335289	1.2578921	0.81310236	0.16311214	1.0919708	0.89071562	0.018261873	1.1699573	1.2895089	-0.16895951	1.1863233	1.2966599	0.19386563	1.0969452	1.3263103	0.013532532	1.0488209	1.007526	-0.19730782	1.2143652	0.98001644	0.29712363	1.0747121	0.77558711	-0.26865715	1.4521801	0.95409404	0.22689001
413	1.648	1.6387496	0.0696676	-0.038686991	0.84834578	0.034321262	0.086959597	1.509449	0.072782362	-0.061987325	0.76453153	0.13155869	0.13097435	1.506264	0.088095394	0.02098023	0.79479302	0.14468217	0.046387284	1.4439646	0.031501797	-0.018668104	0.71277509	0.15468778	0.074026911	1.420746	0.4380358	-0.074493893	1.0442893	0.4158928	0.15498387	1.3916553	0.42683017	0.043469286	1.0235063	0.41718649	0.025650434	1.2454617	0.77698175	-0.14280791	1.1561916	0.76016526	0.19513653	1.3008402	0.8210438	-0.083388416	1.265449	0.81250378	0.16268579	1.0986571	0.89043176	0.018142968	1.1769391	1.2888008	-0.1698975	1.1928191	1.2962773	0.19297245	1.1036449	1.3257783	0.012384762	1.0555194	1.0068602	-0.19787442	1.2198801	0.97961257	0.2965518	1.0815339	0.77479607	-0.26886845	1.4574337	0.95166188	0.22667016
414	1.652	1.642205	0.065593465	-0.037657578	0.84903238	0.034308566	0.08710488	1.513962	0.071940484	-0.061519759	0.76911953	0.13391169	0.13201358	1.5104027	0.086937336	0.021279397	0.80020951	0.14634651	0.047675336	1.4461389	0.032822908	-0.018995592	0.71873981	0.15883653	0.074834165	1.4280767	0.43713535	-0.073699687	1.0528152	0.41460907	0.15586303	1.3978798	0.42541629	0.04368862	1.0321335	0.41551251	0.026563128	1.2539219	0.77729381	-0.14301679	1.1625436	0.75920509	0.19441033	1.3085093	0.82108304	-0.083490026	1.2727965	0.81193848	0.16215878	1.1052604	0.89017625	0.018013314	1.183963	1.288142	-0.17085641	1.1993367	1.2959949	0.19211146	1.1104738	1.3253342	0.011241537	1.0622849	1.006205	-0.19846722	1.2252989	0.97928735	0.29591754	1.0884943	0.77403494	-0.26907809	1.4626037	0.94917372	0.22648387
415	1.656	1.6446019	0.061129319	-0.036502575	0.84977833	0.034291478	0.087226628	1.5172907	0.070936072	-0.061258785	0.77406148	0.13620464	0.13305558	1.5134012	0.085720615	0.021567698	0.80603881	0.14789773	0.049030839	1.4476865	0.033855946	-0.019297781	0.72516732	0.16299741	0.075633683	1.4359247	0.43679357	-0.072915406	1.0615683	0.41321627	0.15689039	1.4038749	0.42429728	0.043863104	1.0411305	0.41364546	0.027599743	1.2623074	0.77803239	-0.14319798	1.169003	0.75821779	0.19371069	1.3161043	0.82125361	-0.083639629	1.2795468	0.81141176	0.1616491	1.1116869	0.88998944	0.01787959	1.1910206	1.2875416	-0.17182414	1.2058872	1.2958179	0.19128605	1.117395	1.3249909	0.010109256	1.0691233	1.0055772	-0.19908582	1.2306082	0.97900242	0.29522801	1.0956012	0.77331909	-0.26929201	1.4676956	0.94663036	0.22633626
